<svg xmlns="http://www.w3.org/2000/svg" viewBox="0 0 3000 3000" width="3000" height="3000"><g transform="translate(94.0 400.0) rotate(0.0 1409.0 1038.5) scale(1.002234221212796 1.0021809619393192)"><svg width="2811.718" height="2072.48" viewBox="0 0 2811.718 2072.48"><path d="M1173.516 1420.054c-159.816-198.489-326.59-307.938-421.962-263.726-7.773 3.603-44.452 21.847-46.268 50.894-4.855 77.671 244.329 156.311 468.23 212.832z" fill="#232323"/><path d="M1226.27 1260.158c-8.813 86.976-14.672 144.705-44.416 210.985-122.03 271.896-485.792 330.321-530.226 336.825-73.908 10.818-209.503 19.894-375.697-34.234l31.462-210.052c73.394 3.958 123.869-12.275 155.462-26.842 78.634-36.248 101.308-90.289 203.244-157.799 42.594-28.21 80.194-46.299 103.74-56.665.026-.052 3.409-6.826 5.108-10.182 22.256-43.745 49.735-90.42 83.812-138.018 110.383-154.181 241.305-250.127 337.897-307.289 22.527 89.076 46.483 226.92 29.614 393.271z" fill="#fff"/><path d="M537.881 1819.177c-13.2 0-26.419-.325-39.642-.976-74.616-3.671-149.724-17.673-223.237-41.616a3 3 0 0 1-2.038-3.297l31.462-210.052a2.995 2.995 0 0 1 3.128-2.551c57.279 3.088 109.108-5.851 154.044-26.57 41.667-19.208 67.843-43.83 98.153-72.34 26.779-25.189 57.13-53.738 104.69-85.236a700.049 700.049 0 0 1 103.197-56.471c1.001-2.004 3.319-6.636 4.632-9.229 24.516-48.186 52.792-94.751 84.048-138.41 88.713-123.911 202.705-227.579 338.809-308.125a3.004 3.004 0 0 1 2.681-.188 2.996 2.996 0 0 1 1.755 2.034c33 130.495 42.99 263.16 29.69 394.31-8.858 87.415-14.71 145.165-44.664 211.912-28.175 62.776-71.538 119.126-128.884 167.485-46.639 39.33-102.776 73.635-166.852 101.964-108.104 47.795-208.575 64.985-236.793 69.115-37.466 5.484-75.727 8.241-114.179 8.241zm-258.606-47.513c72.235 23.299 145.993 36.94 219.26 40.545 51.352 2.527 102.714.101 152.659-7.209 28.028-4.103 127.826-21.178 235.236-68.666 63.554-28.099 119.207-62.101 165.41-101.063 56.652-47.773 99.475-103.407 127.278-165.355 29.556-65.86 35.369-123.226 44.168-210.059 13.097-129.146 3.488-259.775-28.558-388.333-133.853 79.823-246.058 182.223-333.528 304.4-31.081 43.413-59.2 89.72-83.577 137.632a2629.771 2629.771 0 0 0-5.001 9.968l-.103.205a2.997 2.997 0 0 1-1.47 1.394 693.987 693.987 0 0 0-103.292 56.42c-47.134 31.216-77.288 59.579-103.893 84.604-30.692 28.869-57.198 53.802-99.752 73.418-45.116 20.802-96.968 29.969-154.154 27.251z" fill="#232323"/><path d="M1461.151 858.596c-20.922-81.946-166.507-117.689-294.657-58.408-105.828 48.954-192.25 121.775-453.804 383.901 103.599-88.512 387.635 149.76 482.11 259.1 155.228-308.154 284.95-511.745 266.351-584.593z" fill="#00676c"/><path d="M1650.06 233.709c-2.25 31.69-.5 88.37.96 111.69.04.59.07 1.15.11 1.69.33 5.06.65 8.21.89 8.71-12.72 8.92-27.36 27.48-40.8 47.43-.08.11-.15.23-.23.34 0 .01-.01.01-.01.02-2.39 3.52-4.72 7.09-7 10.66l-.01.01c-.01.02-.02.03-.03.05-20.04 31.33-35.85 62.36-35.85 62.36s-1.74-1.08-4.93-3.05h-.01c-9.42-5.8-31.48-19.22-59.25-35.15h-.01c-9.41-5.39-19.48-11.08-29.94-16.85h-.01c-7.71-4.27-15.65-8.57-23.7-12.88-.01 0-.01-.01-.02-.01s-.01-.01-.02-.01c-29.25-15.56-59.85-30.7-86.59-41.54h-.01c-.86-.36-1.72-.7-2.57-1.04-19.43-7.75-36.68-13.13-49.7-14.59h-.02c-.01 0-.02 0-.03-.01h-.01c-.12-.01-.23-.03-.35-.04-.07-.01-.14-.02-.21-.02l-.13-.03h-.1l-36.09-150.82c-.31-.09-.65-.2-1.01-.3-2.09-.65-4.98-1.59-8.44-2.86-1.82-.66-3.78-1.42-5.87-2.27.89-.77 1.82-1.49 2.76-2.18a91.46 91.46 0 0 1 10.05-6.44 88.34 88.34 0 0 1 16.44-7.03c16.23-5.1 33.75-5.44 50.48-.42.02-.2.05-.39.08-.58.36-3.04.84-5.98 1.44-8.83 2.92-13.92 8.55-25.55 16-34.97 1.01-1.28 2.05-2.51 3.13-3.71 37.03-41.21 111.22-34.27 132.56 13.66 66.77-74.15 178.77-4.88 160.18 72.25-.31 1.31-.6 2.83-.86 4.53-.52 3.4-.939 7.54-1.27 12.23z" fill="#232323"/><path d="M1675.396 500.43c-2.877.61-5.832 1.177-8.866 1.683l.026.174a342.716 342.716 0 0 1 1.011 7.619c.255 2.198 13.032 64.465 57.132 261.448-4.552 13.045-23.778 63.301-78.735 90.729-14.033 7.003-72.902 36.384-124.663 4.359-41.919-25.935-50.333-73.274-51.656-81.929 4.559-20.164 8.643-44.843 10.134-71.642v-.017c.052-.863.096-1.726.14-2.589a427.805 427.805 0 0 0-.436-50.083l-.026-.349c-13.539 7.026-88.502 44.547-141.471 10.313-14.942-9.651-23.372-21.358-26.833-27.67-30.773-56.124 28.733-142.124 8.918-253.379a244.4 244.4 0 0 0-2.458-12.144 262.66 262.66 0 0 0-7.044-25.072c-.009-.017-.009-.044-.017-.061v-.009c.244-.087.479-.174.724-.27h.009c.262-.096.523-.192.776-.279.462-.174.924-.34 1.377-.506a450.23 450.23 0 0 1 19.135-6.46c21.114-6.591 41.479-11.054 61.111-12.806 11.202-1.002 22.169-1.124 32.909-.253 11.874.95 23.477 3.112 34.801 6.625 1.316.41 2.632.837 3.94 1.282a156.462 156.462 0 0 1 21.925 9.397c.235.113.479.244.715.384 20.73 10.958 40.502 27.225 59.367 49.804 25.612 30.338 35.507 40.52 56.638 15.517 0-.009.009-.009.017-.017 2.459-3.443 4.769-7.009 6.992-10.662 11.516-18.9 20.922-39.936 40.136-56.482 110.052-79.226 189.27 114.655 28.672 152.367-1.445.342-2.909.665-4.4.978z" fill="#fff"/><g fill="#232323"><path d="M1574.501 884.122c-23.569.001-41.716-7.049-54.777-15.129-41.194-25.487-51.014-70.759-53.042-84.027a3.008 3.008 0 0 1 .039-1.115c5.371-23.749 8.756-47.669 10.062-71.096l.003-.083c.049-.806.09-1.612.131-2.418l.007-.142a426.623 426.623 0 0 0-.172-45.545c-17.018 8.417-35.529 15.053-52.596 18.825-35.207 7.783-64.746 4.173-87.797-10.726-17.343-11.202-25.689-24.835-27.834-28.747-15.899-28.997-8.524-65.577.015-107.932 8.623-42.769 18.397-91.245 8.58-146.363a242.58 242.58 0 0 0-2.429-12.001 261.343 261.343 0 0 0-6.964-24.788 3.192 3.192 0 0 1-.056-.183 3.01 3.01 0 0 1 1.877-3.666c.213-.076.417-.152.63-.235.064-.025.129-.048.195-.069.262-.095.489-.178.709-.254.276-.105.632-.235.984-.363l.345-.125a456.496 456.496 0 0 1 19.269-6.505c22.403-6.992 42.598-11.222 61.738-12.931 11.538-1.032 22.782-1.118 33.419-.255 12.239.979 24.166 3.251 35.447 6.75 1.344.418 2.685.854 4.018 1.307a160.232 160.232 0 0 1 22.346 9.578c.209.099.501.255.79.423 21.425 11.337 41.681 28.327 60.208 50.501 14.929 17.683 24.529 28.528 33.269 28.531h.002c5.358 0 11.135-4.001 18.727-12.971 2.225-3.123 4.445-6.513 6.784-10.357 2.422-3.975 4.808-8.146 7.116-12.181 8.897-15.556 18.097-31.642 33.626-45.015.066-.057.134-.11.205-.161 30.382-21.871 62.416-25.369 87.888-9.599 12.932 8.006 23.17 20.258 29.61 35.433 6.466 15.236 8.466 31.97 5.785 48.391-6.674 40.876-40.27 71.31-92.172 83.498-1.47.345-2.958.673-4.472.992-2.048.435-4.093.837-6.106 1.203.363 2.683.637 4.949.64 4.979.291 2.105 12.449 61.791 57.081 261.15.123.546.09 1.115-.095 1.644-6.656 19.073-27.798 66.258-80.228 92.424-28.39 14.166-52.592 19.353-72.805 19.353zm-101.802-99.507c2.114 13.287 11.726 55.482 50.182 79.275 22.964 14.209 62.727 24.962 121.744-4.492 49.74-24.824 70.241-69.359 76.959-88.229-42.192-188.474-56.663-258.031-56.997-260.918-.003-.026-.475-3.937-1-7.53l-.024-.158a2.999 2.999 0 0 1 2.473-3.41 204.075 204.075 0 0 0 8.736-1.658l.005-.001c1.467-.309 2.91-.626 4.334-.961 49.422-11.606 81.359-40.263 87.623-78.624 5.025-30.775-8.394-62.75-32.632-77.755-13.684-8.472-42.41-18.52-81.118 9.291-14.688 12.685-23.608 28.28-32.234 43.361-2.328 4.07-4.735 8.278-7.199 12.323-2.446 4.019-4.772 7.567-7.112 10.844-.069.097-.145.19-.225.279-8.831 10.432-16.019 15.085-23.298 15.085h-.005c-11.414-.003-21.325-11.085-37.862-30.672-18.305-21.909-37.43-37.961-58.477-49.087a3.063 3.063 0 0 1-.125-.07 6.737 6.737 0 0 0-.491-.264 154.777 154.777 0 0 0-21.589-9.26 156.801 156.801 0 0 0-3.865-1.257c-10.856-3.368-22.347-5.555-34.149-6.5-10.303-.836-21.204-.751-32.403.251-18.71 1.67-38.495 5.818-60.484 12.682a449.328 449.328 0 0 0-19.007 6.417l-.155.056a266.76 266.76 0 0 1 6.235 22.653 248.336 248.336 0 0 1 2.487 12.292c10.016 56.233.123 105.302-8.606 148.594-8.307 41.203-15.481 76.787-.636 103.862 1.974 3.6 9.67 16.155 25.83 26.592 21.655 13.996 49.664 17.33 83.247 9.907 17.947-3.967 37.556-11.198 55.214-20.363a3 3 0 0 1 4.373 2.431l.027.365a432.342 432.342 0 0 1 .44 50.448l-.007.146a279.395 279.395 0 0 1-.132 2.478c-1.312 23.591-4.703 47.67-10.077 71.577z"/><path d="M1478.565 408.568c-10.8.318-36.678 1.788-62.486-4.159-3.562-.8-7.159 1.435-8.066 5.023l.026.106c-2.056 9.366-2.888 25.043 15.273 26.828 22.199 2.243 53.576-12.359 58.567-23.012.797-1.767-.043-3.801-1.784-4.491-.501-.213-.976-.32-1.53-.295zm-145.332 14.097c10.802-1.215 18.202-3.943 36.675-10.868 3.489-1.312 7.366.308 8.677 3.795 3.437 8.903 1.219 19.43-13.184 24.675-16.147 5.901-29.43-3.817-34.663-12.276-.973-1.665-.492-3.802 1.068-4.749.476-.341.899-.446 1.427-.577zm334.327 83.528c-5.503.538-11.479.823-17.047.408-1.989-.155-3.555-1.932-3.408-3.938.147-1.989 1.932-3.562 3.929-3.399a92.787 92.787 0 0 0 15.579-.196c.303 2.38.62 4.761.947 7.125zM1555.288 645.98c-4.315 36.579-34.783 68.338-77.317 81.798.261-5.632.383-11.603.323-17.88v-.017c.052-.863.096-1.726.14-2.589a427.805 427.805 0 0 0-.436-50.083 240.079 240.079 0 0 0 23.842-15.081c19.763-14.21 34.548-29.431 45.245-42.429 4.926 10.443 10.496 26.884 8.203 46.281zm-163.893-114.018c4.727 3.358 10.151 5.3 15.871 5.39a33.951 33.951 0 0 0 16.345-3.209c5.008-2.628 9.31-6.56 12.605-11.468a35.04 35.04 0 0 0 5.664-16.996v-.109c.094-1.959 1.695-3.379 3.501-3.276 1.505.104 2.713 1.297 3.02 2.929 1.13 7.941-.349 16.108-4.24 22.977-1.895 3.489-4.193 6.544-6.993 9.273-8.301 8.189-19.628 11.818-30.671 10.003a35.508 35.508 0 0 1-10.446-3.231c-3.417-1.621-6.435-4.115-8.953-7.154-1.209-1.52-1.015-3.697.385-5.008 1.1-1.092 2.806-1.097 4.013-.231zm253.989-82.827c-2.009.945-4.331.175-5.276-1.834-.262-.608-.445-1.347-.391-2.033 4.212-69.094 60.977-78.991 61.506-79.122 2.166-.312 4.195 1.092 4.507 3.257.311 2.165-1.119 4.089-3.259 4.506-2.034.391-51.113 9.171-54.887 71.879-.083 1.477-.904 2.69-2.2 3.347z"/><path d="M1381.463 489.771c-.793.421-1.691.418-2.535.179-12.002-4.542-18.301-9.15-20.451-15.12-2.754-7.503 1.887-15.49 7.111-24.743 11.801-20.746 5.834-31.265 5.808-31.371-.92-1.454-.388-3.38 1.067-4.3a3.086 3.086 0 0 1 4.275.96c.368.582 8.283 13.534-5.666 37.838-5.251 9.147-8.275 15.053-6.729 19.491 1.416 3.91 6.819 7.618 16.711 11.337 1.609.611 2.397 2.434 1.785 4.043-.028.792-.663 1.397-1.376 1.686zM1489.32 373.17c-5.574-23.015-27.48-40.374-50.747-42.379-15.557-3.109-58.569 20.668-36.043 32.013 11.898 5.992 25.089 5.919 37.283 10.171 8.721 2.353 19.894 7.123 28.992 10.203 7.761 3.83 23.495 1.432 20.515-10.008zm-128.285-7.031c-1.185 1.91-3.255 3.261-5.309 4.214-12.861 6.332-23.637 11.239-35.653 18.744-2.491-12.716-6.446-24.665-9.523-37.279l.764-.268c-.254-.039-.504-.061-.757-.092 11.124-6.977 25.428-9.496 37.915-4.986 8.044 2.526 18.517 10.546 12.563 19.667z"/></g><path d="M1749.1 160.839c-.01 46.635-59.971 71.25-97.17 71.25-.01 0 0 .01 0 .01-.298 38.246-.621 76.503-.92 114.74-107.659-11.783-228.499-10.861-338.95 4.42-.51.056-1.029.148-1.54.19-.01.01-.02.01-.04.01v-.01l-36.09-150.82c-86.124-22.715-125.768-112.618-35.16-182.292 43.26-28.507 97.3-10.897 154.53 1.853 229.682 54.624 355.373-7.759 355.34 140.649z" fill="#fff"/><path d="M1310.481 354.459a3 3 0 0 1-2.946-2.43l-35.647-148.968c-45.318-12.506-78.04-43.356-85.593-80.844-7.533-37.387 10.618-75.123 51.108-106.259.058-.045.117-.087.178-.127 39.408-25.969 87.025-14.83 137.437-3.036 6.338 1.483 12.891 3.016 19.396 4.465 75.378 17.927 139.894 23.252 191.732 27.53 107.023 8.833 165.978 13.699 165.955 116.048h-3 3c-.006 27.827-19.622 45.635-36.077 55.674-17.89 10.915-41.023 17.891-61.116 18.528-.144 18.366-.293 36.732-.442 55.099-.154 18.91-.308 37.818-.455 56.722a3.002 3.002 0 0 1-3.326 2.958c-110.298-12.071-230.41-10.505-338.213 4.41-.267.031-.453.057-.638.082-.299.042-.598.082-.896.111a2.817 2.817 0 0 1-.457.037zm-69.509-333.677c-38.521 29.654-55.848 65.252-48.796 100.25 7.194 35.706 38.99 65.094 82.979 76.696a2.998 2.998 0 0 1 2.152 2.203l35.464 148.203c106.852-14.69 225.754-16.33 335.264-4.634.14-17.8.284-35.604.429-53.409.157-19.295.313-38.59.464-57.883a2.996 2.996 0 0 1 .225-1.266 3.007 3.007 0 0 1 2.776-1.854c19.713 0 43.075-6.781 60.968-17.698 27.436-16.739 33.199-36.73 33.202-50.553.021-96.823-53.607-101.25-160.449-110.068-52.041-4.295-116.807-9.641-192.585-27.663-6.495-1.446-13.063-2.983-19.417-4.47-49.08-11.48-95.439-22.328-132.676 2.146z" fill="#232323"/><path d="m2237.895 2023.276-1080.991-3.487c-13.345-168.037-13.527-405.147 47.947-679.106 51.144-227.924 129.45-412.214 199.085-546.903 22.447-4.093 47.38-7.399 68.949-10.122 12.373 63.563 57.297 93.502 91.97 93.541 51.214.058 121.609-17.601 156.852-106.115 46.757-.492 98.294-1.335 150.464-3.213 93.312 127.114 225.057 339.403 303.828 630.348 69.147 255.397 71.79 476.534 61.896 625.057z" fill="#00676c"/><path d="M2158.041 1336.099c-94.072-72.888-245.14-210.167-291.022-288.983-8.064-13.853-15.186-27.548-21.376-41.078a962.981 962.981 0 0 1-.506-23.459c7.707 19.624 17.523 39.709 29.414 60.152 43.902 75.417 190.074 208.957 279.099 279.291 1.616 4.46 3.275 9.465 4.391 14.077zm-421.142-517.143a5368.826 5368.826 0 0 0-4.127 34.958c-6.735 14.515-10.871 26.894-17.027 45.018-24.438 72.008-48.069 113.016-70.242 121.899-1.862.75-5.523 2.214-10.502 2.214-.553 0-1.115-.017-1.686-.052-19.503-1.29-35.995-23.974-50.405-69.34-6.709-21.114-12.882-47.302-18.054-76.454-14.033 36.754-26.818 66.228-38.094 87.778-18.309 35.01-32.886 50.188-45.899 47.773-7.781-1.447-12.092-8.596-15.288-15.396-15.06-32.081-18.23-87.726-17.264-138.471a1531.244 1531.244 0 0 1 10.52-42.76c-3.556 57.851-4.118 137.452 14.7 177.544 2.125 4.516 5.058 9.79 8.948 10.514.325.061.676.096 1.062.096 8.289 0 30.884-16.189 78.83-145.376a4.39 4.39 0 0 1 4.557-2.833c1.984.201 3.591 1.7 3.899 3.661 15.113 95.171 38.691 152.952 63.067 154.565 3.829.253 6.753-.916 8.316-1.543 13.541-5.423 35.837-30.05 65.219-116.599 9.826-28.952 20.803-53.884 29.47-77.196z" fill="#fff"/><path d="M1562.75 1122.671c-3.301 0-6.313-.684-9.017-2.05-18.504-9.351-14.63-46.425-12.549-66.342 6.329-60.561 14.012-127.785 22.217-194.404a4.362 4.362 0 0 1 4.859-3.794 4.361 4.361 0 0 1 3.794 4.859c-8.2 66.567-15.877 133.735-22.2 194.244-1.457 13.953-5.33 51.015 7.81 57.655 3.918 1.981 9.492 1.333 16.571-1.92a4.354 4.354 0 0 1 5.781 2.14 4.36 4.36 0 0 1-2.14 5.781c-5.555 2.554-10.612 3.831-15.126 3.831z" fill="#fff"/><circle cx="1576.056" cy="1022.345" fill="#fff" r="9.254"/><circle cx="1573.28" cy="1064.911" fill="#fff" r="9.254"/><path d="M2234.408 1705.953c-13.685-101.042-32.89-194.102-54.131-279.701-23.287 1.261-143.628 5.718-222.053-74.481 0 0-58.427-59.877-89.356-173.961a457.162 457.162 0 0 1-2.633-10.13c-3.382-13.521-5.64-24.714-7.018-32.438-.026.009-.044.018-.07.026l-.189.071c-7.406-41.821-11.845-85.598-13.314-129.302a962.981 962.981 0 0 1-.506-23.459c-.305-.758-.601-1.525-.898-2.284-23.102-59.908-26.519-115.361-9.607-162.846 6.146-17.252 15.03-33.729 26.589-49.29a218.979 218.979 0 0 1 13.024-15.918l-13.068 1.831c-39.43 5.51-79.208 13.814-118.646 19.332a5192.118 5192.118 0 0 0-5.633 45.553 6050.087 6050.087 0 0 0-19.45 186.096 6087.908 6087.908 0 0 0-12.986 174.36c-87.205 16.576-184.907 21.017-291.461 2.644-.663-.104-1.325-.227-1.996-.34a839.972 839.972 0 0 1-19.939-3.743c7.594-68.908 15.977-119.062 20.392-144.153 15.101-85.805 50.569-240.832 51.033-245.675-19.79 2.161-40.098 4.768-59.845 7.826-94.284 180.358-193.673 474.062-227.436 702.501a2625.258 2625.258 0 0 0-31.384 295.529 2625.046 2625.046 0 0 0 .872 274.607l1116.734.872a3019.915 3019.915 0 0 0-27.025-363.527z" fill="#fff"/><path d="M2261.433 2072.48h-.002l-1116.734-.872a3 3 0 0 1-2.993-2.833c-5.067-91.206-5.361-183.702-.874-274.92 4.858-98.743 15.43-198.287 31.42-295.867 16.176-109.451 47.692-237.317 91.133-369.73 41.104-125.291 89.618-243.793 136.605-333.675a2.999 2.999 0 0 1 2.2-1.575c18.805-2.912 38.985-5.551 59.979-7.844a3 3 0 0 1 3.312 3.268c-.145 1.507-2.351 11.606-7.772 36.344-11.368 51.865-32.528 148.405-43.292 209.565-7.844 44.57-14.591 92.069-20.062 141.226a831.923 831.923 0 0 0 17.172 3.195l.738.127c.404.071.805.141 1.207.204 95.491 16.466 192.409 15.724 288.14-2.195a6123.13 6123.13 0 0 1 12.852-172.111 6078.41 6078.41 0 0 1 19.459-186.189 5224.58 5224.58 0 0 1 5.635-45.576 3 3 0 0 1 2.56-2.59c19.641-2.748 39.722-6.251 59.142-9.639 19.523-3.406 39.711-6.927 59.505-9.693l13.067-1.831a3 3 0 0 1 2.648 4.976 217.281 217.281 0 0 0-12.846 15.7c-11.338 15.264-20.144 31.584-26.173 48.511-16.698 46.885-13.475 100.973 9.58 160.76l.227.583c.216.554.433 1.109.654 1.66.14.348.214.719.217 1.094.067 7.512.236 15.38.504 23.386 1.47 43.725 5.858 86.65 13.045 127.601.241.35.408.75.484 1.177 1.234 6.922 3.446 18.133 6.974 32.237a454.246 454.246 0 0 0 2.618 10.073c30.374 112.036 88.029 172.058 88.607 172.651 32.707 33.446 76.499 55.97 130.158 66.943 36.707 7.507 68.979 7.753 89.587 6.637a3 3 0 0 1 3.074 2.273c24.1 97.123 41.827 188.719 54.192 280.021 16.271 120.132 25.373 242.562 27.052 363.888a3.003 3.003 0 0 1-.865 2.149 3.002 3.002 0 0 1-2.134.891zm-1113.894-6.87 1110.85.867c-1.785-120.091-10.852-241.23-26.954-360.122-12.235-90.334-29.73-180.962-53.476-276.983-21.021.979-52.743.465-88.633-6.875-54.855-11.218-99.686-34.309-133.248-68.629-.592-.607-59.33-61.751-90.106-175.273a463.144 463.144 0 0 1-2.65-10.196c-3.365-13.45-5.549-24.317-6.835-31.394a2.835 2.835 0 0 1-.483-1.143c-7.369-41.615-11.864-85.261-13.359-129.725a967.591 967.591 0 0 1-.501-22.97c-.157-.396-.312-.794-.467-1.191l-.23-.589c-23.592-61.179-26.833-116.67-9.64-164.946 6.229-17.487 15.316-34.333 27.007-50.072a216.96 216.96 0 0 1 7.924-10.048l-5.143.72c-19.694 2.752-39.831 6.265-59.305 9.662-18.724 3.267-38.059 6.64-57.072 9.35a5234.407 5234.407 0 0 0-5.339 43.259 6072.176 6072.176 0 0 0-19.44 186.005 6113.206 6113.206 0 0 0-12.98 174.274 3 3 0 0 1-2.435 2.767c-97.187 18.473-195.608 19.366-292.531 2.653a84.07 84.07 0 0 1-1.26-.213l-.726-.125c-2.76-.485-5.516-.975-8.274-1.491a847.353 847.353 0 0 1-11.754-2.268 3.001 3.001 0 0 1-2.394-3.271c5.539-50.257 12.409-98.822 20.42-144.344 10.785-61.282 31.962-157.902 43.34-209.809 3.099-14.137 5.714-26.073 6.934-31.917-18.901 2.115-37.099 4.51-54.175 7.131-46.62 89.435-94.72 207.06-135.52 331.421-43.336 132.094-74.771 259.618-90.906 368.784-15.961 97.404-26.508 196.721-31.355 295.238-4.43 90.068-4.189 181.384.716 271.463z" fill="#232323"/><path d="M1971.717 1983.745c7.783 20.579-2.782 43.557-23.473 51.053s-43.521-3.384-50.725-24.173l-181.428-523.308-14.831-42.791-9.186-26.487 57.877-20.967 10.936 28.922 3.605 9.546z" fill="#d9c6f4"/><ellipse cx="1701.748" cy="1354.381" fill="#d9c6f4" rx="89.644" ry="108.111" transform="matrix(.9402 -.3406 .3406 .9402 -359.5589 660.6173)"/><path d="M1709.317 1432.134c-11.473 0-23.151-3.284-34.165-9.75-17.32-10.171-30.944-27.048-38.362-47.522-15.418-42.558 1.062-87.697 36.738-100.621 35.674-12.922 77.241 11.185 92.659 53.744 15.418 42.558-1.062 87.697-36.738 100.621a58.923 58.923 0 0 1-20.132 3.528zm-15.745-152.678a49.93 49.93 0 0 0-17.074 2.98c-31.155 11.287-45.291 51.416-31.51 89.455 6.726 18.568 19.008 33.83 34.58 42.975 15.309 8.988 31.97 10.958 46.914 5.542 31.155-11.287 45.291-51.416 31.51-89.455-11.316-31.234-37.991-51.497-64.42-51.497z" fill="#fff"/><path d="M2318.295 1502.818c238.184-160.249 442.435-326.206 408.302-411.708-13.302-33.322-59.674-46.569-90.11-47.395-120.396-3.269-247.771 180.866-318.192 459.103z" fill="#232323"/><path d="M2798.293 1526.613c-89.312 295.285-728.03 322.162-797.859 331.481-22.404 2.99-45.009.453-58.269 1.804-9.964-50.153-15.622-84.012-21.358-117.288-4.315-24.985-7.262-48.993-10.801-80.743-1.787-16.014 25.874-37.102 26.563-53.309 135.185-49.255 263.762-141.557 352.159-182.208a362.352 362.352 0 0 1 6.12-2.764c.409-.183.819-.366 1.22-.541-.018-.017-.043-.026-.061-.043-.471-.314-.933-.645-1.404-.968-2.24-1.543-4.498-3.104-6.756-4.681-.558-.384-1.116-.767-1.674-1.159a1999.069 1999.069 0 0 1-143.676-110.043 1996.853 1996.853 0 0 1-149.394-139.212c26.205-100.907 52.419-201.814 78.625-302.721 66.463-1.186 291.833 3.034 486.978 167.859 107.262 90.594 296.426 306.61 239.587 494.536z" fill="#fff"/><path d="M1942.163 1862.898a3 3 0 0 1-2.94-2.416c-8.913-44.856-14.315-76.299-19.54-106.708l-1.833-10.655c-4.258-24.654-7.194-48.34-10.826-80.92-1.065-9.547 6.532-19.95 13.879-30.01 6.085-8.333 12.378-16.948 12.668-23.758a2.999 2.999 0 0 1 1.97-2.691c84.021-30.613 165.027-77.641 236.497-119.133 42.176-24.485 82.013-47.612 115.435-62.982.834-.387 1.666-.768 2.494-1.144a923.199 923.199 0 0 1-3.839-2.668c-.548-.376-1.114-.766-1.68-1.164a2010.004 2010.004 0 0 1-143.882-110.201 2007.58 2007.58 0 0 1-149.619-139.422 3 3 0 0 1-.749-2.841l78.625-302.721a3.002 3.002 0 0 1 2.851-2.246c64.518-1.153 132.299 6.373 195.991 21.759 110.743 26.752 209.314 76.145 292.976 146.808 25.995 21.956 115.943 102.096 181.964 211.51 29.324 48.596 49.589 95.972 60.233 140.812 12.341 51.986 11.778 100.897-1.674 145.375-34.698 114.717-154.994 202.646-357.547 261.345-162.216 47.009-335.115 62.379-408.946 68.942-15.863 1.41-27.324 2.429-33.84 3.299-13.542 1.807-26.861 1.633-38.614 1.477-7.804-.103-14.545-.192-19.748.338a2.862 2.862 0 0 1-.306.015zm-2.8-252.166c-1.236 8.049-7.521 16.654-13.614 24.998-6.671 9.133-13.569 18.578-12.762 25.806 3.62 32.468 6.543 56.059 10.776 80.565l1.833 10.659c5.116 29.773 10.403 60.544 18.992 103.934 5.024-.314 10.979-.236 17.708-.148 11.546.153 24.635.326 37.741-1.424 6.647-.887 18.164-1.911 34.103-3.328 73.657-6.548 246.15-21.882 407.807-68.729 200.477-58.097 319.402-144.671 353.474-257.319l2.872.869-2.872-.869c13.142-43.449 13.673-91.31 1.58-142.251-10.501-44.235-30.531-91.034-59.533-139.098-65.548-108.629-154.881-188.22-180.699-210.026-82.942-70.056-180.685-119.029-290.513-145.559-62.455-15.088-128.86-22.559-192.199-21.629l-77.627 298.881a2001.909 2001.909 0 0 0 147.997 137.794 2004.283 2004.283 0 0 0 143.46 109.877c.56.394 1.109.771 1.659 1.149 2.271 1.587 4.523 3.144 6.758 4.683l.549.381c.272.189.543.379.817.562a3.231 3.231 0 0 1 .488.388 3 3 0 0 1-.892 4.901c-.388.169-.785.346-1.182.523a361.387 361.387 0 0 0-6.095 2.752c-33.172 15.255-72.89 38.312-114.939 62.724-71.185 41.326-151.8 88.128-235.687 118.934z" fill="#232323"/><path d="M2717.327 1075.943c-174.313-166.784-667.7-513.052-844.148-326.693-188.795 199.399 153.468 481.824 326.93 607.285 229.143-217.108 457.978-350.611 517.218-280.592z" fill="#00676c"/><path d="M2075.386 1851.022c-97.535 11.576-246.829 25.728-310.703-5.089-30.765-14.846-49.011-36.484-51.53-61.712-.043-.436-.087-.863-.113-1.299v-.009a62.197 62.197 0 0 1 .105-10.88c.009-.061.009-.131.017-.192a102.222 102.222 0 0 1-2.119-4.69c-6.712-15.901-6.66-27.505-4.472-36.03.078-.331.166-.654.261-.968a42.672 42.672 0 0 1 2.886-7.462c.017-.052.044-.096.07-.149a86.322 86.322 0 0 1-1.822-3.347c0-.009-.009-.009-.009-.017-10.06-19.588-7.689-35.193-4.62-43.989.113-.314.226-.619.331-.915 1.683-4.498 3.452-6.966 3.452-6.966-.035-.096-.061-.192-.087-.288a58.386 58.386 0 0 1-.785-2.606c-9.677-34.627 16.067-53.039 31.994-50.807 24.636 3.461 59.925 23.058 82.556 17.244-24.278-81.432-6.198-133.468 14.28-111.22 36.135 39.264 67.588 86.776 146.849 63.151 16.241-4.847 58.792-21.602 76.21-29.091" fill="#fff"/><path d="M1890.429 1867.546c-58.321 0-101.01-6.348-127.05-18.911-31.714-15.304-50.611-38.074-53.212-64.116-.051-.513-.095-.96-.123-1.416v-.013a65.471 65.471 0 0 1 .055-10.699c-.615-1.3-1.214-2.64-1.819-4.072-6.007-14.229-7.516-26.641-4.615-37.944.079-.337.183-.721.297-1.096a44.594 44.594 0 0 1 2.448-6.625 84.388 84.388 0 0 1-1.124-2.112c-10.311-20.078-8.291-36.283-4.782-46.343l.336-.928c1.103-2.951 2.251-5.117 3.002-6.391a58.943 58.943 0 0 1-.486-1.671c-6.261-22.404 2.054-36.324 7.568-42.627 7.496-8.568 18.38-13.26 27.735-11.947 9.451 1.328 20.067 4.844 31.306 8.567 16.726 5.54 33.981 11.257 47.035 9.35-17.383-60.483-12.009-106.918 3.236-115.584 3.135-1.782 9.519-3.551 17.05 4.63 3.544 3.851 7.095 7.84 10.53 11.697 15.712 17.646 31.958 35.893 52.589 46.65 23.312 12.156 48.944 13.415 80.666 3.96 16.325-4.872 58.986-21.708 75.881-28.972a3 3 0 1 1 2.37 5.512c-17.007 7.312-60.015 24.278-76.537 29.209-15.021 4.478-28.385 6.456-40.404 6.457-46.675.004-73.206-29.804-99.047-58.827-3.418-3.839-6.953-7.809-10.464-11.624-3.598-3.909-6.853-5.078-9.669-3.477-11.485 6.528-17.926 50.101.472 111.809a2.998 2.998 0 0 1-2.129 3.763c-15.05 3.867-34.58-2.602-53.467-8.858-10.974-3.635-21.339-7.068-30.253-8.32-6.061-.853-15.336 1.899-22.385 9.956-4.716 5.391-11.807 17.376-6.302 37.072.226.821.475 1.647.747 2.482.015.046.029.092.042.139.343.933.211 2.021-.368 2.829-.01.013-1.581 2.26-3.08 6.268l-.32.884c-3.112 8.921-4.874 23.412 4.468 41.6l.005.01.002.003a82.799 82.799 0 0 0 1.757 3.229 3 3 0 0 1 .086 2.825l-.009.019c-.02.044-.04.088-.062.131a39.513 39.513 0 0 0-2.685 6.94c-.096.316-.166.577-.229.845-2.577 10.042-1.161 21.202 4.316 34.175a97.651 97.651 0 0 0 2.055 4.55c.249.513.345 1.085.28 1.65a59.544 59.544 0 0 0-.106 10.601c.023.361.059.717.095 1.078 2.391 23.942 20.094 45.005 49.855 59.367 61.863 29.846 206.005 17.041 309.046 4.812a3 3 0 1 1 .708 5.958c-43.621 5.177-108.524 12.196-168.269 13.373-5.82.116-11.504.173-17.042.173zM1712.543 1723.7l-.001.003.001-.003zm.004-.012-.001.005.001-.005zm.004-.012-.002.006.002-.006zm.004-.011-.001.005.001-.005zm.006-.017-.003.011c0-.004.002-.007.003-.011z" fill="#232323"/><path d="m1761.859 1701.916-.098-.001c-13.483-.43-46.07-4.556-57.434-33.51a3 3 0 0 1 5.585-2.193c10.06 25.634 39.745 29.313 52.04 29.706a3 3 0 0 1-.093 5.998zm1.225 50.123-.098-.001c-15.341-.489-43.653-9.673-55.699-27.836a3 3 0 1 1 5-3.316c10.404 15.688 36.24 24.689 50.89 25.155a3 3 0 0 1-.093 5.998zm3.255 47.827-.097-.001c-4.568-.145-16.526-.981-28.866-5.598-12.54-4.692-21.563-11.736-26.819-20.936a3 3 0 1 1 5.21-2.976c9.408 16.467 33.173 22.958 50.666 23.514a3 3 0 0 1-.094 5.997z" fill="#232323"/><path d="M269.888 1719.952c-89.767-152.433-191.276-376.872-218.966-659.371-6.784-69.207-8.425-134.635-6.605-195.541a1754.105 1754.105 0 0 1 79.069 160.273c111.734 259.005 143.219 504.257 146.502 694.639z" fill="#00676c"/><path d="M297.752 1613.368c-81.946-156.776-171.979-386.06-185.352-669.598-3.276-69.461-1.608-134.888 3.288-195.625a1754.185 1754.185 0 0 1 70.866 164.065c98.498 264.323 117.544 510.854 111.198 701.158z" fill="#00676c"/><path d="M316.36 1701.527c-67.243-163.622-135.899-400.188-123.248-683.759 3.099-69.469 10.753-134.469 21.191-194.502a1754.196 1754.196 0 0 1 55.542 169.866c73.876 272.232 70.263 519.471 46.515 708.395z" fill="#00676c"/><path d="M580.911 1303.594c-17.42 267.23-82.707 480.523-200.984 472.813-83.521-5.444-125.873-112.686-138.211-266.962-2.345-29.317-3.606-60.335-3.854-92.668-.323-40.424.935-82.915 3.625-126.732.176-2.845.352-5.689.538-8.543 1.926-29.54 4.373-58.414 7.368-86.419 4.771-44.599 10.936-86.956 18.619-126.162 6.745-34.483 14.648-66.517 23.807-95.492 33.022-104.554 82.222-169.235 151.19-164.74 144.974 9.451 155.322 227.675 137.902 494.905z" fill="#fff"/><path d="M386.083 1779.609c-2.107 0-4.221-.069-6.351-.208-78.545-5.121-127.304-98.387-141.006-269.716-2.313-28.91-3.612-60.161-3.863-92.884-.318-39.803.903-82.512 3.63-126.939.176-2.85.353-5.698.539-8.554 1.943-29.809 4.426-58.926 7.378-86.542 4.879-45.609 11.157-88.143 18.658-126.421 6.892-35.234 14.93-67.473 23.891-95.82 17.244-54.599 38.345-96.431 62.716-124.333 26.575-30.425 57.373-44.72 91.53-42.496 68.725 4.48 112.095 54.582 132.59 153.167 16.108 77.484 18.609 183.863 8.11 344.925l-2.994-.195 2.994.195c-9.144 140.277-30.884 257.986-62.867 340.399-17.282 44.532-37.514 78.612-60.134 101.292-22.606 22.668-47.751 34.13-74.821 34.13zm50.316-968.136c-29.66 0-56.613 13.657-80.205 40.667-23.824 27.275-44.52 68.387-61.514 122.193-8.893 28.133-16.874 60.151-23.724 95.166-7.469 38.108-13.72 80.469-18.581 125.905-2.944 27.534-5.419 56.568-7.357 86.295-.186 2.85-.362 5.691-.538 8.533-2.718 44.288-3.936 86.857-3.619 126.523.25 32.581 1.543 63.686 3.844 92.452 16.969 212.18 83.005 260.791 135.416 264.208 27.695 1.807 53.444-9.018 76.533-32.17 22.029-22.088 41.809-55.473 58.789-99.226 31.766-81.851 53.369-198.943 62.474-338.619 10.462-160.5 7.996-266.381-7.997-343.314-19.87-95.579-61.446-144.121-127.106-148.401a97.397 97.397 0 0 0-6.415-.212z" fill="#232323"/><path d="M465.259 1057.734c-4.787 14.544-46.265.453-148.827 6.99-17.609 1.124-33.75 2.64-48.42 4.198 6.745-34.483 14.648-66.517 23.807-95.492 18.442.182 36.731 2.274 53.356 6.001 65.788 14.738 126.191 59.728 120.084 78.303z" fill="#fff"/><path d="M268.012 1071.922a3.001 3.001 0 0 1-2.944-3.576c6.892-35.235 14.93-67.474 23.89-95.821a3 3 0 0 1 2.86-2.096h.03c18.403.183 37.07 2.283 53.983 6.074 25.436 5.699 52.302 16.455 75.648 30.288 21.524 12.753 37.579 26.603 44.049 37.998 3.002 5.289 3.871 9.959 2.581 13.883v.001c-3.3 10.025-16.966 9.489-46.909 8.318-22.984-.9-57.718-2.26-104.577.728-15.153.967-30.499 2.298-48.294 4.187a3.045 3.045 0 0 1-.317.016zm26-95.462c-8.288 26.538-15.771 56.466-22.268 89.054 16.184-1.675 30.421-2.885 44.498-3.784 47.167-3.006 82.086-1.64 105.193-.735 24.375.954 39.089 1.53 40.975-4.199.728-2.216.002-5.344-2.099-9.045-12.138-21.379-62.677-53.494-115.791-65.394-15.829-3.547-33.244-5.578-50.508-5.897zm171.247 81.274h.01z" fill="#232323"/><path d="M435.055 1279.249c-4.787 14.544-46.265.452-148.827 6.99-16.146 1.025-31.063 2.389-44.741 3.807.176-2.845.352-5.689.538-8.543 1.926-29.54 4.373-58.414 7.368-86.419 22.502-.796 45.279 1.31 65.578 5.861 65.788 14.739 126.191 59.729 120.084 78.304z" fill="#fff"/><path d="M241.487 1293.045a3 3 0 0 1-2.994-3.185c.176-2.848.353-5.696.539-8.553 1.943-29.809 4.426-58.926 7.378-86.542a3 3 0 0 1 2.877-2.679c22.534-.798 45.475 1.253 66.34 5.931 25.436 5.699 52.302 16.456 75.648 30.289 21.524 12.753 37.579 26.603 44.048 37.998 3.002 5.288 3.871 9.959 2.581 13.882v.001c-3.3 10.024-16.965 9.492-46.908 8.318-22.983-.899-57.717-2.259-104.577.729-14.071.893-28.249 2.099-44.622 3.796-.104.01-.207.015-.31.015zm10.613-95.042c-2.823 26.759-5.204 54.902-7.081 83.695-.109 1.669-.214 3.336-.319 5.002 14.985-1.518 28.205-2.622 41.337-3.456 47.167-3.006 82.086-1.641 105.192-.735 24.374.953 39.087 1.53 40.974-4.198.729-2.216.003-5.344-2.099-9.046-12.138-21.379-62.677-53.494-115.791-65.394-19.57-4.386-41.025-6.403-62.213-5.868zm182.955 81.246h.01z" fill="#232323"/><path d="M409.468 1501.065c-4.787 14.544-46.265.453-148.827 6.99-6.509.41-12.817.88-18.925 1.391-2.345-29.317-3.606-60.335-3.854-92.668 17.821.309 35.445 2.376 51.521 5.983 65.789 14.739 126.192 59.729 120.085 78.304z" fill="#fff"/><path d="M241.716 1512.445a3 3 0 0 1-2.99-2.761c-2.312-28.91-3.612-60.161-3.863-92.884-.006-.809.314-1.585.889-2.154s1.349-.895 2.163-.868c17.823.309 35.848 2.402 52.126 6.055 25.435 5.699 52.301 16.456 75.647 30.288 21.524 12.753 37.579 26.603 44.048 37.998 3.002 5.288 3.871 9.959 2.581 13.882v.001c-3.3 10.025-16.967 9.49-46.91 8.318-22.983-.899-57.716-2.259-104.575.728-6.138.387-12.485.853-18.866 1.386a2.613 2.613 0 0 1-.25.011zm-.826-92.596c.295 30.332 1.499 59.351 3.582 86.361 5.406-.435 10.768-.82 15.981-1.149 47.165-3.007 82.083-1.64 105.19-.735 24.376.954 39.09 1.53 40.976-4.199.728-2.216.002-5.344-2.099-9.045-12.138-21.379-62.677-53.494-115.791-65.394-14.953-3.355-31.429-5.363-47.839-5.839zm168.577 81.215h.01z" fill="#232323"/><path d="M72.702 1325.863c163.418 10.775 365.515 9.188 529.828-4.359l52.236 747.976H44.155h.375l28.172-743.617z" fill="#fff"/><path d="M654.766 2072.48H44.154a3 3 0 0 1-2.569-4.551l28.118-742.18a3 3 0 0 1 3.195-2.88c163.334 10.77 366.182 9.101 529.384-4.355a2.998 2.998 0 0 1 3.24 2.78l52.237 747.976a2.998 2.998 0 0 1-2.993 3.21zm-607.121-6H651.55l-51.801-741.738c-161.92 13.167-362.106 14.815-524.165 4.316z" fill="#232323"/><g><path d="M153.025 1743.424c-3.226 13.165-46.661 18.46-91.742.105-39.922-16.252-41.86-64.7-4.809-51.766 44.395 15.5 101.282 32.358 96.55 51.66z" fill="#fff"/><path d="M118.472 1758.348c-16.73 0-37.431-3.535-58.321-12.04-25.723-10.472-37.442-34.196-31.872-48.939 1.457-3.86 7.874-15.878 29.182-8.44 4.886 1.706 9.922 3.429 15.012 5.167 45.424 15.53 88.33 30.197 83.465 50.038-.875 3.567-3.671 6.577-8.31 8.946-6.494 3.316-16.731 5.27-29.156 5.268zm-73.284-65.758c-5.621 0-9.573 2.342-11.297 6.9-4.054 10.73 4.836 31.618 28.52 41.26 26.3 10.707 64.345 16.247 82.486 6.987 2.932-1.497 4.782-3.283 5.21-5.031 1.475-6.016-5.978-13.08-22.155-20.998-15.593-7.632-36.858-14.904-57.424-21.934-5.102-1.744-10.15-3.47-15.048-5.18-3.843-1.342-7.303-2.003-10.292-2.004z" fill="#232323"/><path d="M151.046 1701.142c-2.395 8.161-32.448 19.604-110.557-11.478-43.07-17.137-37.204-78.261 4.965-58.898 50.532 23.201 112.207 47.828 105.592 70.376z" fill="#fff"/><path d="M124.286 1713.131c-3.863 0-8.234-.23-13.18-.772-19.883-2.181-44.015-8.878-71.727-19.906-20.426-8.127-29.502-25.028-31.185-38.132-1.433-11.167 1.982-20.975 9.135-26.233 7.308-5.372 17.741-5.39 29.376-.047a2749.884 2749.884 0 0 0 17.184 7.798c49.701 22.427 96.647 43.61 90.034 66.15-.815 2.774-3.299 5.24-7.185 7.134-4.077 1.986-11.034 4.007-22.452 4.008zm-93.824-83.134c-3.703 0-6.925.973-9.575 2.922-5.371 3.95-7.89 11.664-6.738 20.636 1.465 11.41 9.446 26.155 27.451 33.319 36.48 14.517 82.57 26.569 102.516 16.85 2.622-1.276 3.814-2.607 4.055-3.429 2.17-7.392-5.687-16.671-23.352-27.578-16.887-10.428-40.529-21.096-63.392-31.413-5.805-2.62-11.581-5.225-17.22-7.815-5.073-2.326-9.695-3.492-13.745-3.492zm120.584 71.145h.01z" fill="#232323"/><path d="M154.072 1651.576c-4.78 5.244-33.943 11.934-108.616-20.81-65.373-28.673-47.37-97.37.913-73.523 49.852 24.622 123.537 76.963 107.703 94.333z" fill="#fff"/><path d="M135.69 1658.93c-17.607 0-46.864-5.872-91.44-25.417-25.624-11.238-42.096-30.275-44.068-50.922-1.153-12.095 3.213-22.8 11.68-28.637 9.32-6.423 22.046-6.21 35.835.599 42.639 21.06 106.805 64.677 111.288 88.452.78 4.136-.153 7.8-2.698 10.59-2.581 2.835-9.111 5.336-20.598 5.335zM27.572 1555.295c-4.653 0-8.822 1.197-12.307 3.6-6.65 4.585-10.055 13.23-9.11 23.128.658 6.913 5.529 30.656 40.503 45.997 74.045 32.469 101.81 25.247 105.193 21.537 1.279-1.401 1.67-3.13 1.237-5.435-3.61-19.14-61.047-60.97-108.05-84.186-6.252-3.093-12.172-4.642-17.466-4.64zm126.499 96.281h.01z" fill="#232323"/><path d="M140.449 1597.046c-7.965 7.07-35.854 2.64-99.969-31.196-64.289-33.928-14.17-99.827 31.352-63.924 43.659 34.432 82.861 82.475 68.617 95.12z" fill="#fff"/><path d="M130.035 1602.917c-17.105 0-47.56-11.51-90.955-34.412-20.83-10.994-32.554-27.07-32.166-44.106.31-13.648 8.678-26.311 21.316-32.264 6.784-3.195 24.793-8.864 45.462 7.436 34.791 27.439 72.103 68.133 72.725 89.505.125 4.324-1.212 7.76-3.976 10.215-2.726 2.418-6.866 3.626-12.406 3.626zm10.414-5.87h.01zm-96.025-102.534c-4.7 0-9.3 1.006-13.637 3.05-10.598 4.99-17.614 15.579-17.874 26.972-.197 8.625 3.306 25.118 28.968 38.663 76.918 40.593 93.366 34.453 96.576 31.605 1.392-1.236 2.034-3.053 1.962-5.552-.484-16.6-32.083-54.716-70.444-84.968-8.186-6.458-17.031-9.77-25.551-9.77z" fill="#232323"/></g><circle cx="1320.288" cy="1185.952" fill="#232323" r="18.97"/><circle cx="1787.555" cy="1185.952" fill="#232323" r="18.97"/><path d="M1274.391 200.629c11.744-21.5 47.622-55.244 81.93-65.88" fill="#fff"/><path d="M1274.388 203.629a3 3 0 0 1-2.631-4.439c12.867-23.555 50.395-56.991 83.675-67.307a2.999 2.999 0 1 1 1.776 5.73c-34.866 10.809-69.544 44.971-80.186 64.453a2.997 2.997 0 0 1-2.634 1.563z" fill="#232323"/><path d="M1651.93 232.089c-22.158-29.842-55.011-56.437-74.282-67.348" fill="#fff"/><path d="M1651.933 235.089a2.995 2.995 0 0 1-2.411-1.211c-21.023-28.312-52.813-54.897-73.351-66.525a3 3 0 0 1 2.956-5.222c21.086 11.939 53.692 39.188 75.212 68.169a3 3 0 0 1-2.406 4.789z" fill="#232323"/><path d="M2296.007 1423.004c37.464-16.911 66.721-27.657 74.928-30.895" fill="#fff"/><path d="M2296.009 1426.005a3 3 0 0 1-1.236-5.736c31.61-14.269 57.307-24.126 69.656-28.863 2.293-.88 4.112-1.578 5.406-2.088a3 3 0 0 1 2.203 5.581c-1.306.516-3.143 1.22-5.459 2.109-12.297 4.717-37.884 14.533-69.336 28.73a2.997 2.997 0 0 1-1.234.267zM769.84 1325.377a3 3 0 0 1-1.086-5.798c16.729-6.493 38.812-9.212 65.629-8.088l.993.041a3 3 0 0 1 2.878 3.117 2.987 2.987 0 0 1-3.117 2.878l-1.006-.042c-25.985-1.092-47.253 1.496-63.207 7.687a2.976 2.976 0 0 1-1.084.205z" fill="#232323"/></svg></g><g transform="translate(980.0 2368.0) rotate(0.0 485.5 55.5) scale(0.9937936511835458 1.00859578025333)"><svg width="977.064" height="110.054" viewBox="0 0 977.064 110.054"><path d="M954.419 110.054 22.562 108.33C6.31 108.3-4.588 91.627 1.906 76.728l27.536-63.171A22.579 22.579 0 0 1 50.14 0h877.054a22.578 22.578 0 0 1 20.816 13.833l27.267 64.896c6.26 14.897-4.699 31.355-20.858 31.325z" fill="#D9C6F4"/></svg></g><g transform="translate(896.0 2067.0) rotate(0.0 312.0 185.5) scale(1.0001089862356796 1.0019282392529019)"><svg width="623.932" height="370.286" viewBox="0 0 623.932 370.286"><path d="M283.905 114.67c-16.746 5.494-88.669 27.014-166.992-8.8C51.876 76.13 20.869 24.437 11.226 6.648 33.184 1.528 93.94-9.604 163.437 17.582c70.742 27.672 108.04 78.42 120.468 97.088z" fill="#00676c"/><path d="M291.051 110.762c-12.049 12.862-64.798 66.281-150.697 72.486C69.026 188.4 17.002 157.951 0 146.98c16.8-15.038 64.743-53.982 138.757-63.516 75.339-9.705 132.427 16.892 152.294 27.298z" fill="#00676c"/><path d="M450.212 60.667c85.47 23.572 144.93 91.622 147.85 161.53.786 18.806 7.308 37.564 18.708 54.789 4.053 6.125 5.242 12.659 3.144 17.605-2.392 5.64-9.395 10.016-18.348 11.42-21.523 3.375-40.759 11.912-56.548 23.725-47.04 35.194-114.094 46.992-177.192 29.656-96.006-26.377-166.768-115.78-143.462-200.288C246.961 77.17 348.91 32.729 450.212 60.667z" fill="#fff"/><g fill="#232323"><path d="M426.401 370.272c-19.968 0-40.038-2.677-59.369-7.988-47.322-13.001-90.364-41.961-118.09-79.454-29.032-39.26-38.788-83.484-27.469-124.525 11.174-40.517 41.397-73.322 85.102-92.372 43.487-18.955 94.782-21.852 144.435-8.158 42.055 11.598 78.816 33.823 106.311 64.271 26.749 29.622 42.282 65.146 43.74 100.026.75 17.974 7.048 36.39 18.212 53.258 4.605 6.96 5.878 14.598 3.404 20.432-2.794 6.591-10.706 11.654-20.645 13.212-20.076 3.148-39.169 11.157-55.215 23.163-23.578 17.64-52.58 29.772-83.869 35.082-12.009 2.039-24.261 3.053-36.547 3.053zM388.947 55.258c-28.047 0-55.311 5.425-79.974 16.175-42.012 18.312-71.032 49.73-81.715 88.467-10.818 39.226-1.404 81.616 26.509 119.362 26.941 36.432 68.805 64.584 114.855 77.236 30.386 8.349 62.657 10.01 93.321 4.806 30.355-5.152 58.46-16.899 81.279-33.971 16.827-12.589 36.842-20.988 57.88-24.286 7.789-1.221 14.088-5 16.05-9.627 1.687-3.977.609-9.502-2.884-14.779-11.766-17.779-18.407-37.253-19.203-56.319-1.398-33.486-16.385-67.67-42.198-96.256-26.728-29.598-62.5-51.213-103.452-62.507-20.108-5.545-40.488-8.301-60.468-8.301z"/><path d="M338.02 200.029a2.998 2.998 0 0 1-2.964-3.482c8.073-49.634 41.099-112.961 96.681-142.551a3 3 0 0 1 2.82 5.296c-53.769 28.625-85.743 90.045-93.578 138.218a3.004 3.004 0 0 1-2.959 2.519zm68.554-35.158a3 3 0 0 1-2.761-4.17c15.689-37.074 42.932-70.608 74.742-92.005a3 3 0 1 1 3.349 4.979c-30.869 20.763-57.318 53.335-72.565 89.364a3.003 3.003 0 0 1-2.765 1.832zm76.395-16.902a3 3 0 0 1-2.528-4.611c14.102-22.159 27.86-38.311 42.06-49.377a2.999 2.999 0 1 1 3.688 4.732c-13.65 10.638-26.958 26.295-40.687 47.866a2.994 2.994 0 0 1-2.533 1.39z"/></g></svg></g></svg>